<svg viewBox="0 0 400 300" xmlns="http://www.w3.org/2000/svg"><path d="m92.16 55.69h227.75v157.06h-227.75z" fill="#e6e6e6"/><path d="m92.16 88.39h227.75v124.36h-227.75z" fill="#ccc" opacity=".44"/><path d="m311.21 179.69-17.35 24.67h16.33v8.39h9.72l-.61-30.09z" opacity=".08"/><path d="m95 101.72s4.72-3.18 6.93 8.5-4.27 21.6 11.25 24 25.68-4.16 29.26 14.48 23.74 27.07 16.85 43.92-12.64 20.13-12.64 20.13h-54.49s-.41-104.39 2.84-111.03z" opacity=".08"/><ellipse cx="100.51" cy="272.61" fill="#e6e6e6" opacity=".45" rx="73.82" ry="4.78"/><ellipse cx="318.45" cy="272.05" fill="#e6e6e6" opacity=".45" rx="36.91" ry="3.72"/><circle cx="110.53" cy="70.1" fill="#24285b" r="4.38"/><circle cx="123.56" cy="70.1" fill="#68e1fd" r="4.38"/><circle cx="135.84" cy="70.1" fill="#ffd200" r="4.38"/><path d="m259.16 40.05h84.69v63.98h-84.69z" fill="#24285b"/><path d="m67.06 264.43s-1.23 3.42-4.32 3.68-3.89 3.28-1.12 4.06 9.94-2.78 9.94-2.78l-.21-4.45z" fill="#68e1fd"/><path d="m109.46 264.43s1.22 3.42 4.31 3.68 3.89 3.28 1.12 4.06-9.93-2.78-9.93-2.78l.2-4.45z" fill="#68e1fd"/><g fill="#fff"><path d="m154.14 137a2.5 2.5 0 0 1 0-3.54l14.91-14.9a2.5 2.5 0 0 1 3.53 3.53l-14.91 14.91a2.5 2.5 0 0 1 -3.53 0z"/><path d="m169.29 137.24-14.91-14.91a2.5 2.5 0 1 1 3.54-3.53l14.9 14.9a2.5 2.5 0 1 1 -3.53 3.54z"/><path d="m236.82 137a2.5 2.5 0 0 1 0-3.54l14.91-14.9a2.5 2.5 0 1 1 3.53 3.53l-14.9 14.91a2.52 2.52 0 0 1 -3.54 0z"/><path d="m252 137.24-14.91-14.91a2.5 2.5 0 1 1 3.54-3.53l14.9 14.9a2.5 2.5 0 1 1 -3.53 3.54z"/><text font-family="Panton-Bold, Panton" font-size="28.4" font-weight="700" transform="translate(274.39 83.06)">404</text><path d="m184.94 179.69a2.49 2.49 0 0 1 -2.48-2.3c-.7-8.51 2.53-25.26 19.72-27.7 5.37-.75 9.86.48 13.34 3.68 8.17 7.51 7.36 23.3 7.33 24a2.5 2.5 0 1 1 -5-.28c0-.14.71-14.1-5.72-20-2.36-2.16-5.38-2.94-9.25-2.4-16.88 2.31-15.51 21.48-15.44 22.31a2.5 2.5 0 0 1 -2.29 2.69z"/></g><path d="m113.41 127.79s22 4.45 20.19 25 18.19 31.78 5.93 43.64-28.6 5.19-28.6 5.19z" fill="#68e1fd"/><path d="m113.41 127.79s22 4.45 20.19 25 18.19 31.78 5.93 43.64-28.6 5.19-28.6 5.19z" fill="#fff" opacity=".39"/><path d="m95.2 107.45a28.81 28.81 0 0 1 1.8 7.46 2.32 2.32 0 0 1 -2.25 2.4 5.1 5.1 0 0 1 -4.93-2.56l-2.47-3.47a4.15 4.15 0 0 1 .5-4.77c1.98-2.51 6.45-1.73 7.35.94z" fill="#f4a28c"/><path d="m88.49 112.15.19 15.13 8.33-.7-3.49-10.73z" fill="#f4a28c"/><path d="m87.82 114.88a.42.42 0 0 0 .43.31 3.08 3.08 0 0 0 2.93-2.28 3.84 3.84 0 0 0 -1.2-4 18.42 18.42 0 0 0 4.18-.9 4.42 4.42 0 0 0 1.27-.67l.15-3.66s.84-3.86-1.33-4-2.44 2.36-4.49 1.2-2.6-1.65-4-.29.85 2.11-1.84 2.88-2.44 1.89-2.11 3.12a2.2 2.2 0 0 0 .84 1 14.18 14.18 0 0 1 5.17 7.29z" fill="#24285b"/><path d="m91.62 112.64s-.54-1.7-1.78-1.19-.48 3 1.33 2.68z" fill="#f4a28c"/><path d="m96.13 110.22 1.73 1.34a.74.74 0 0 1 -.11 1.24l-1.6.82z" fill="#f4a28c"/><path d="m94 117.29a7.1 7.1 0 0 1 -3.36-1.08s.52 3 4.41 4.23z" fill="#ce8172" opacity=".31"/><path d="m104.41 125.82a106.54 106.54 0 0 0 -39.94 8.54 15.39 15.39 0 0 0 -7.77 21.06l21.73 43.35 40.28-2.39s7.34-24.36 5.87-51.91a19.8 19.8 0 0 0 -20.17-18.65z" fill="#68e1fd"/><path d="m78.43 198.77-12 66.28h6l15.09-36a62.42 62.42 0 0 1 26.79-30.17l4.42-2.51z" fill="#24285b"/><path d="m75.1 140.12a21.4 21.4 0 0 1 7.67 19.57c-1.84 12.55-3.77 22.31 7.83 19.38s17.83-29.83 17.83-29.83l13.5.33-2.33 30-7.83.54a8.46 8.46 0 0 0 -7.72 6.78l-2.11 10.47-23.51 1.39-3.33-5-14.67-15.84-1.83-25.34z" opacity=".08"/><path d="m92.24 140.49h26.16v35.83h-26.16z" fill="#ffd200" transform="matrix(-1 -.07 .07 -1 199.66 323.6)"/><path d="m118.71 196.38-6.21 68.67h-8s1.87-51.67-12.57-62.67z" fill="#24285b"/><path d="m76 144a9.81 9.81 0 0 0 -17.56-5.74c-4.62 5.9-8.88 15.74-8.53 31.9.75 34.5 21 43.75 52.25 6l-6.16-4.75s-12.3 10.44-23.57 10.59c-8.43.12 4.14-21.54 3.57-38z" fill="#68e1fd"/><path d="m76 144a9.81 9.81 0 0 0 -17.56-5.74c-4.62 5.9-8.88 15.74-8.53 31.9.75 34.5 21 43.75 52.25 6l-6.16-4.75s-12.3 10.44-23.57 10.59c-8.43.12 4.14-21.54 3.57-38z" fill="#fff" opacity=".39"/><path d="m118.48 157.75s-9 16.53-27 11.86l-.39 5.79 26.1 1.77z" opacity=".08"/><path d="m97.14 172.28s3.68-6.5 8.18-4.78-3.16 8.66-3.16 8.66z" fill="#f4a28c"/><path d="m137.68 261.51s-8.52-2.33-10.37-10.25c0 0 13.19-2.67 13.57 10.95z" fill="#68e1fd" opacity=".58"/><path d="m138.72 260.66s-5.95-9.4-.71-18.2c0 0 10 6.38 5.57 18.22z" fill="#68e1fd" opacity=".73"/><path d="m140.25 260.67s3.15-9.93 12.65-11.81c0 0 1.78 6.45-6.15 11.84z" fill="#68e1fd"/><path d="m134.08 260.45 1.72 11.81 10.88.04 1.6-11.79z" fill="#24285b"/><path d="m274.39 104.03h45.53v15.69h-45.53z" opacity=".08"/><path d="m316.06 191.51h6.47v65.12h-6.47z" fill="#e6e6e6"/><path d="m319.91 157.22-26.05 39.91h26.05 26.06z" fill="#ffd200"/><path d="m310.19 251.05h18.89v21.26h-18.89z" fill="#24285b"/><path d="m317.85 172.06h3.7v12h-3.7z" fill="#24285b"/><path d="m317.85 186.4h3.7v3.7h-3.7z" fill="#24285b"/></svg>